<?xml version="1.0" encoding="iso-8859-1"?>
<!-- Uploaded to: SVG Repo, www.svgrepo.com, Generator: SVG Repo Mixer Tools -->
<svg fill="#000000" height="800px" width="800px" version="1.1" id="Layer_1" xmlns="http://www.w3.org/2000/svg" xmlns:xlink="http://www.w3.org/1999/xlink" 
	 viewBox="0 0 456.187 456.187" xml:space="preserve">
<g id="XMLID_458_">
	<g>
		<path d="M443.169,380.968l-85.767-85.767c46.284-74.526,37.108-173.954-27.538-238.6C293.364,20.101,244.836,0,193.218,0
			C141.6,0,93.07,20.101,56.571,56.601c-75.347,75.347-75.347,197.945,0,273.293c36.499,36.499,85.029,56.6,136.646,56.6
			c36.453,0,71.358-10.037,101.581-28.783l85.196,85.196c17.539,17.539,46.58,17.873,63.78,0.002
			C460.442,425.591,460.24,398.039,443.169,380.968z M324.062,261.86l-5.314-5.315c-11.74-11.739-30.773-11.739-42.513,0
			l-20.046,20.045c-11.74,11.74-11.74,30.773,0,42.513l5.249,5.249c-20.813,10.861-44.072,16.626-68.22,16.626
			c-39.46,0-76.559-15.366-104.462-43.269c-57.6-57.601-57.6-151.323,0-208.923c27.903-27.903,65.001-43.27,104.462-43.27
			s76.558,15.366,104.46,43.27C344.446,135.554,353.24,206.135,324.062,261.86z"/>
	</g>
</g>
</svg>